<svg xmlns="http://www.w3.org/2000/svg" width="256" height="256"><path fill="#222" fill-opacity=".016" fill-rule="evenodd" d="M0 128.004v128.004l128.25-.254 128.25-.254.254-127.75L257.008 0H0zm.485.496c0 70.4.119 99.053.265 63.672s.146-92.98 0-128S.485 58.1.485 128.5"/><path fill="#222" fill-opacity=".175" fill-rule="evenodd" d="M80 77.671c-12.872 9.741-23.652 23.617-28.88 37.173-4.205 10.905-5.432 19.278-4.906 33.493.381 10.308.935 13.589 3.633 21.514 5.359 15.746 14.857 29.335 27.472 39.307l4.878 3.856 9.267-8.507 9.268-8.507h54.536l9.268 8.507 9.267 8.507 4.878-3.856c12.615-9.972 22.113-23.561 27.472-39.307 2.698-7.925 3.252-11.206 3.633-21.514.725-19.612-2.949-33.688-12.671-48.546-4.764-7.281-18.345-21.003-23.49-23.736-2.717-1.442-2.742-1.424-15.071 11.25L146.205 100h-36.41l-12.16-12.5c-6.688-6.875-12.604-12.495-13.147-12.489s-2.563 1.203-4.488 2.66M69.016 103.1C64.607 109.84 61 115.726 61 116.178s30.15.822 67 .822 67-.37 67-.822c0-1.793-16.1-25.311-17.099-24.978-.588.196-2.043 3.268-3.235 6.828L172.5 104.5h-89l-2.166-6.472c-1.192-3.56-2.647-6.632-3.235-6.828-.587-.196-4.675 5.159-9.083 11.9m.672 34.15a5161 5161 0 0 1 13.698 24.483l5.114 9.233h79l5.114-9.233a5161 5161 0 0 1 13.698-24.483l8.585-15.25H61.103zM92 175.983c0 .541 1.674 4.366 3.719 8.5l3.72 7.517h57.122l3.72-7.517c2.045-4.134 3.719-7.959 3.719-8.5 0-.626-13.07-.983-36-.983s-36 .357-36 .983"/><path fill="#222" fill-opacity=".295" fill-rule="evenodd" d="M78.433 79.288c-25.002 18.52-36.951 50.245-30.588 81.212 3.068 14.929 10.031 28.165 20.734 39.412 4.526 4.756 9.377 9.261 10.78 10.012 3.143 1.683 4.245 1.048 14.458-8.324l7.191-6.6h53.984l7.191 6.6c10.213 9.372 11.315 10.007 14.458 8.324 1.403-.751 6.254-5.256 10.78-10.012 33.492-35.194 28.855-91.951-9.854-120.624l-5.932-4.395-12.581 12.554L146.472 100h-36.944L96.946 87.447 84.365 74.893zm-9.801 23.683c-4.773 7.261-7.638 12.571-7.282 13.499.519 1.352 8.279 1.53 66.65 1.53s66.131-.178 66.65-1.53c.813-2.118-14.666-25.553-16.65-25.209-.878.153-2.357 2.95-3.567 6.75l-2.066 6.489H83.633l-2.066-6.489c-1.21-3.8-2.689-6.597-3.567-6.75-.946-.164-4.405 4.159-9.368 11.71M61 121.737c0 .405 6.188 11.877 13.75 25.493l13.75 24.755h79l13.75-24.755c7.563-13.616 13.75-25.088 13.75-25.493S164.85 121 128 121s-67 .332-67 .737m30 53.785c0 .287 1.805 4.112 4.011 8.5L99.022 192h57.956l4.011-7.978c2.206-4.388 4.011-8.213 4.011-8.5S148.35 175 128 175s-37 .235-37 .522"/><path fill="#222" fill-opacity=".328" fill-rule="evenodd" d="M78.9 79.179c-12.353 8.924-22.855 23.371-27.842 38.299-2.525 7.558-1.948 8.682 4.275 8.321 4.713-.273 5.14-.497 4.854-2.549l-.313-2.25h136.252l-.313 2.25c-.286 2.052.141 2.276 4.854 2.549 4.307.25 5.233 0 5.56-1.5.812-3.715-5.302-18.132-11.576-27.299-4.047-5.913-15.517-17.075-20.063-19.522l-3.599-1.939-12.758 12.731L145.472 101H110.47L98 88.5C91.142 81.625 85.028 76 84.415 76s-3.095 1.43-5.515 3.179m-4.162 14.018c-6.803 9.19-14.943 22.998-14.072 23.869 1.327 1.327 134.56.768 134.99-.566.525-1.632-16.022-26-17.656-26-.964 0-2.249 2.321-3.597 6.5l-2.096 6.5H83.693l-2.096-6.439c-1.154-3.541-2.618-6.602-3.256-6.803s-2.259 1.122-3.603 2.939"/></svg>